<mxfile host="app.diagrams.net" agent="Mozilla/5.0 (Windows NT 10.0; Win64; x64) AppleWebKit/537.36 (KHTML, like Gecko) Chrome/131.0.0.0 Safari/537.36" version="25.0.1">
  <diagram name="Activity Diagram" id="0">
    <mxGraphModel dx="1500" dy="757" grid="1" gridSize="10" guides="1" tooltips="1" connect="1" arrows="1" fold="1" page="1" pageScale="1" pageWidth="800" pageHeight="600" math="0" shadow="0">
      <root>
        <mxCell id="0" />
        <mxCell id="1" parent="0" />
        <mxCell id="start" value="Start" style="ellipse;whiteSpace=wrap;html=1;fillColor=green;strokeColor=black;" parent="1" vertex="1">
          <mxGeometry x="50" y="50" width="40" height="40" as="geometry" />
        </mxCell>
        <mxCell id="prep_stage" value="Preparation Stage" style="swimlane;html=1;fillColor=#dae8fc;" parent="1" vertex="1">
          <mxGeometry x="100" y="20" width="600" height="150" as="geometry" />
        </mxCell>
        <mxCell id="create_request" value="Create Vacancy Request" style="rounded=1;whiteSpace=wrap;html=1;" parent="prep_stage" vertex="1">
          <mxGeometry x="150" y="60" width="140" height="60" as="geometry" />
        </mxCell>
        <mxCell id="hr_check" value="HR Checks Request" style="rounded=1;whiteSpace=wrap;html=1;" parent="prep_stage" vertex="1">
          <mxGeometry x="350" y="60" width="140" height="60" as="geometry" />
        </mxCell>
        <mxCell id="check_decision" value="Request Meets Requirements?" style="rhombus;whiteSpace=wrap;html=1;" parent="prep_stage" vertex="1">
          <mxGeometry x="520" y="60" width="80" height="80" as="geometry" />
        </mxCell>
        <mxCell id="request_fix" value="Fix Request" style="rounded=1;whiteSpace=wrap;html=1;" parent="prep_stage" vertex="1">
          <mxGeometry x="700" y="60" width="120" height="60" as="geometry" />
        </mxCell>
        <mxCell id="select_stage" value="Selection Stage" style="swimlane;html=1;fillColor=#dae8fc;" parent="1" vertex="1">
          <mxGeometry x="100" y="200" width="600" height="200" as="geometry" />
        </mxCell>
        <mxCell id="publish_vacancy" value="Publish Vacancy" style="rounded=1;whiteSpace=wrap;html=1;" parent="select_stage" vertex="1">
          <mxGeometry x="30" y="70" width="140" height="60" as="geometry" />
        </mxCell>
        <mxCell id="submit_applications" value="Candidates Submit Applications" style="rounded=1;whiteSpace=wrap;html=1;" parent="select_stage" vertex="1">
          <mxGeometry x="200" y="60" width="180" height="60" as="geometry" />
        </mxCell>
        <mxCell id="screen_applications" value="Screen Applications" style="rounded=1;whiteSpace=wrap;html=1;" parent="select_stage" vertex="1">
          <mxGeometry x="420" y="70" width="180" height="60" as="geometry" />
        </mxCell>
        <mxCell id="edge1" parent="1" source="start" target="create_request" edge="1">
          <mxGeometry relative="1" as="geometry" />
        </mxCell>
        <mxCell id="edge2" parent="1" source="create_request" target="hr_check" edge="1">
          <mxGeometry relative="1" as="geometry" />
        </mxCell>
        <mxCell id="edge3" parent="1" source="hr_check" target="check_decision" edge="1">
          <mxGeometry relative="1" as="geometry" />
        </mxCell>
        <mxCell id="edge4" parent="1" source="check_decision" target="request_fix" edge="1">
          <mxGeometry relative="1" as="geometry" />
        </mxCell>
      </root>
    </mxGraphModel>
  </diagram>
</mxfile>
